<svg xmlns="http://www.w3.org/2000/svg" width="192" height="192" viewBox="0 0 192 192" role="img" aria-labelledby="title desc">
  <title id="title">Electra Smart JS Client icon</title>
  <desc id="desc">A smart air conditioner with a lightning bolt and wireless signal.</desc>
  <defs>
    <linearGradient id="bg" x1="32" y1="20" x2="160" y2="172" gradientUnits="userSpaceOnUse">
      <stop offset="0" stop-color="#0ea5e9" />
      <stop offset="1" stop-color="#2563eb" />
    </linearGradient>
    <linearGradient id="bolt" x1="91" y1="58" x2="115" y2="123" gradientUnits="userSpaceOnUse">
      <stop offset="0" stop-color="#fde68a" />
      <stop offset="1" stop-color="#facc15" />
    </linearGradient>
    <filter id="shadow" x="-20%" y="-20%" width="140%" height="140%">
      <feDropShadow dx="0" dy="8" stdDeviation="8" flood-color="#0f172a" flood-opacity="0.18" />
    </filter>
  </defs>

  <rect width="192" height="192" rx="42" fill="url(#bg)" />
  <circle cx="48" cy="44" r="24" fill="#ffffff" opacity="0.14" />
  <circle cx="150" cy="150" r="34" fill="#ffffff" opacity="0.1" />

  <g filter="url(#shadow)">
    <rect x="38" y="58" width="116" height="56" rx="16" fill="#f8fafc" />
    <rect x="50" y="72" width="92" height="8" rx="4" fill="#cbd5e1" />
    <rect x="58" y="94" width="48" height="6" rx="3" fill="#94a3b8" />
    <circle cx="130" cy="97" r="7" fill="#38bdf8" />
  </g>

  <path d="M99 51 74 101h22l-9 42 33-58H98l1-34Z" fill="url(#bolt)" stroke="#f59e0b" stroke-linejoin="round" stroke-width="3" />

  <g fill="none" stroke="#dff6ff" stroke-linecap="round" stroke-width="7">
    <path d="M126 51c14 4 25 15 29 29" opacity="0.95" />
    <path d="M136 35c25 8 45 28 53 53" opacity="0.55" transform="translate(-14 0)" />
  </g>
</svg>
